<?xml version="1.0" encoding="UTF-8"?>
<svg xmlns="http://www.w3.org/2000/svg" xmlns:xlink="http://www.w3.org/1999/xlink"
     width="301.474462" height="316.219080" viewBox="-41.936457 -217.706220 301.474462 316.219080">
<defs>
<style type="text/css">
.l0d1 {fill:none;stroke:black;stroke-dasharray:8,8;}
.l1d0 {stroke: #F6A600; fill: #F6A600; fill-opacity: 0.5;}
.l0d0 {stroke: #C2B280; fill: #C2B280; fill-opacity: 0.5;}
.l3d0 {stroke: #DCD300; fill: #DCD300; fill-opacity: 0.5;}
.l2d0 {stroke: #A1CAF1; fill: #A1CAF1; fill-opacity: 0.5;}
</style>
</defs>
<rect x="-41.936457" y="-217.706220" width="301.474462" height="316.219080" fill="none" stroke="none"/>
<g id="init" transform="scale(1 -1)">
<polygon class="l0d0" points="-15.957447,72.533849 -27.562863,72.533849 -27.562863,-27.562863 83.950761,-27.562863 190.038685,78.525061 190.038685,-72.533849 201.644101,-72.533849 201.644101,98.336745 195.841393,100.740306 79.143640,-15.957447 -15.957447,-15.957447"/>
<polygon class="l1d0" points="-1.450677,72.533849 -1.450677,78.336557 -13.056093,78.336557 -13.056093,72.533849 -13.056093,-7.253385 -7.253385,-13.056093 75.538300,-13.056093 79.641434,-11.356519 204.545455,113.547502 204.545455,-72.533849 204.545455,-78.336557 216.150870,-78.336557 216.150870,-72.533849 216.150870,127.556478 206.245028,131.659612 73.134739,-1.450677 -1.450677,-1.450677"/>
<polygon class="l2d0" points="13.056093,72.533849 13.056093,78.336557 1.450677,78.336557 1.450677,72.533849 1.450677,1.450677 71.932959,1.450677 219.052224,148.569942 219.052224,-72.533849 219.052224,-84.139265 230.657640,-84.139265 230.657640,-72.533849 230.657640,176.587895 67.125838,13.056093 13.056093,13.056093"/>
<polygon class="l3d0" points="27.562863,72.533849 26.988214,75.051550 25.378084,77.070589 23.051379,78.191071 20.468931,78.191071 18.142226,77.070589 16.532096,75.051550 15.957447,72.533849 15.957447,21.760155 16.399152,19.539555 17.657021,17.657021 19.539555,16.399152 21.760155,15.957447 63.520498,15.957447 65.022349,16.155169 66.421852,16.734862 67.623632,17.657021 233.558994,183.592383 233.558994,-72.533849 234.133643,-75.051550 235.743773,-77.070589 238.070478,-78.191071 240.652926,-78.191071 242.979631,-77.070589 244.589761,-75.051550 245.164410,-72.533849 245.164410,197.601359 244.531953,200.235733 242.772448,202.295848 240.269446,203.332626 237.568567,203.120062 235.258568,201.704493 61.116938,27.562863 27.562863,27.562863"/>
</g>
</svg>