<?xml version="1.0" encoding="UTF-8"?>
<svg xmlns="http://www.w3.org/2000/svg" xmlns:xlink="http://www.w3.org/1999/xlink"
     width="303.877274" height="342.650011" viewBox="-22.752034 -212.242475 303.877274 342.650011">
<defs>
<style type="text/css">
.l0d1 {fill:none;stroke:black;stroke-dasharray:8,8;}
.l0d0 {stroke: #C2B280; fill: #C2B280; fill-opacity: 0.5;}
</style>
</defs>
<rect x="-22.752034" y="-212.242475" width="303.877274" height="342.650011" fill="none" stroke="none"/>
<g id="init0" transform="scale(1 -1)">
<polygon class="l0d0" points="7.177033,114.832536 -7.177033,114.832536 -7.177033,43.062201 -6.558505,35.203053 -4.718150,27.537424 -1.701285,20.254066 2.417807,13.532320 7.537698,7.537698 13.532320,2.417807 20.254066,-1.701285 27.537424,-4.718150 35.203053,-6.558505 43.062201,-7.177033 93.628644,-7.177033 101.261299,-6.593849 108.716751,-4.857833 115.821914,-2.009291 122.411831,1.885644 128.333508,6.736548 133.449466,12.430799 186.867560,81.874321 191.179423,86.554342 196.250134,90.399163 201.920237,93.287880 208.011430,95.129652 214.332167,95.866564 220.683685,95.475441 226.866252,93.968584 232.685450,91.393378 237.958287,87.830802 242.518952,83.392887 246.224029,78.219188 248.957007,72.472399 250.631945,66.333235 251.196172,59.994749 251.196172,-114.832536 265.550239,-114.832536 265.550239,59.994749 264.945086,67.768981 263.144204,75.355924 260.190979,82.572804 256.156556,89.245759 251.138129,95.214031 245.256594,100.333841 238.653645,104.481846 231.488351,107.558119 223.933330,109.488548 216.170591,110.226629 208.387143,109.754580 200.770497,108.083773 193.504144,105.254460 186.763138,101.334801 180.709874,96.419225 175.490182,90.626151 122.072088,21.182628 117.614956,16.371340 112.356610,12.451606 106.472693,9.554357 100.159748,7.776369 93.628644,7.177033 43.062201,7.177033 36.830807,7.722210 30.788751,9.341174 25.119617,11.984734 19.995660,15.572568 15.572568,19.995660 11.984734,25.119617 9.341174,30.788751 7.722210,36.830807 7.177033,43.062201"/>
<polygon class="l0d1" points="7.177033,114.832536 -7.177033,114.832536 -7.177033,-7.177033 118.366518,-7.177033 251.196172,165.501517 251.196172,-114.832536 265.550239,-114.832536 265.550239,193.779904 257.060431,196.667474 111.298554,7.177033 7.177033,7.177033"/>
</g>
</svg>