<?xml version="1.0" encoding="UTF-8"?>
<svg xmlns="http://www.w3.org/2000/svg" xmlns:xlink="http://www.w3.org/1999/xlink"
     width="300.000000" height="293.466984" viewBox="-25.068019 -270.032059 300.000000 293.466984">
<defs>
<style type="text/css">
.l0d1 {fill:none;stroke:black;stroke-dasharray:8,8;}
.l0d0 {stroke: #C2B280; fill: #C2B280; fill-opacity: 0.5;}
</style>
</defs>
<rect x="-25.068019" y="-270.032059" width="300.000000" height="293.466984" fill="none" stroke="none"/>
<g id="arc" transform="scale(1 -1)">
<polygon class="l0d0" points="9.798562,40.827340 9.798562,81.654680 9.798562,122.482020 9.798562,163.309360 9.885115,166.835173 10.144568,170.352491 10.576296,173.852842 11.179257,177.327793 11.951999,180.768973 12.892662,184.168090 13.998978,187.516957 15.268283,190.807506 16.697518,194.031810 18.283241,197.182100 20.021631,200.250788 21.908501,203.230481 23.939305,206.114000 26.109149,208.894399 28.412808,211.564980 30.844731,214.119309 33.399060,216.551232 36.069641,218.854891 38.850040,221.024736 41.733560,223.055539 44.713252,224.942409 47.781940,226.680799 50.932231,228.266522 54.156534,229.695757 57.447083,230.965062 60.795950,232.071378 64.195067,233.012041 67.636247,233.784783 71.111198,234.387745 74.611549,234.819472 78.128867,235.078925 81.654680,235.165479 85.180493,235.078925 88.697811,234.819472 92.198162,234.387745 95.673113,233.784783 99.114293,233.012041 102.513410,232.071378 105.862277,230.965062 109.152826,229.695757 112.377130,228.266522 115.527420,226.680799 118.596108,224.942409 121.575801,223.055539 124.459320,221.024736 127.239719,218.854891 129.910300,216.551232 132.464629,214.119309 134.896552,211.564980 137.200211,208.894399 139.370056,206.114000 141.400859,203.230481 143.287729,200.250788 145.026119,197.182100 146.611842,194.031810 148.041077,190.807506 149.310382,187.516957 150.416698,184.168090 151.357361,180.768973 152.130103,177.327793 152.733065,173.852842 153.164792,170.352491 153.424245,166.835173 153.510799,163.308847 153.633080,155.007452 153.999691,146.724208 154.609924,138.478246 155.462612,130.288092 156.556128,122.172131 157.888400,114.148564 159.456925,106.235367 161.258786,98.450249 163.290673,90.810611 164.391740,87.050693 165.548907,83.333516 166.761661,79.661155 168.029469,76.035658 169.351780,72.459052 170.728026,68.933335 172.157622,65.460480 173.639967,62.042435 175.174448,58.681119 176.760435,55.378426 178.397290,52.136226 180.084360,48.956360 181.820982,45.840649 183.606485,42.790886 185.440188,39.808845 187.321399,36.896279 189.249420,34.054920 191.223542,31.286487 193.243047,28.592682 195.307204,25.975196 197.415272,23.435712 199.566493,20.975905 201.760093,18.597450 203.995273,16.302022 206.271210,14.091298 208.587047,11.966962 210.941889,9.930709 213.334790,7.984240 215.764752,6.129270 218.230709,4.367525 220.731518,2.700741 223.265947,1.130656 225.832664,-0.340987 228.430227,-1.712457 231.057067,-2.982037 233.711484,-4.148042 236.391636,-5.208833 239.095531,-6.162834 241.821029,-7.008552 244.565837,-7.744599 247.327516,-8.369711 250.103492,-8.882776 252.891067,-9.282847 255.687438,-9.569168 258.489722,-9.741185 261.294549,-9.798562 261.295404,-3.266187 258.756767,-3.214271 256.220513,-3.058580 253.688160,-2.799286 251.161635,-2.436672 248.642833,-1.971129 246.133612,-1.403148 243.635790,-0.733318 241.151131,0.037684 238.681349,0.909102 236.228104,1.880104 233.792997,2.949793 231.377578,4.117212 228.983340,5.381351 226.611727,6.741153 224.264132,8.195516 221.941906,9.743298 219.646355,11.383323 217.378748,13.114378 215.140318,14.935217 212.932267,16.844563 210.755766,18.841106 208.611959,20.923507 206.501967,23.090393 204.426887,25.340361 202.387794,27.671975 200.385743,30.083767 198.421769,32.574234 196.496887,35.141841 194.612095,37.785019 192.768372,40.502164 190.966677,43.291637 189.207950,46.151765 187.493114,49.080839 185.823069,52.077118 184.198697,55.138823 182.620859,58.264141 181.090393,61.451228 179.608117,64.698203 178.174824,68.003155 176.791285,71.364139 175.458246,74.779178 174.176429,78.246266 171.769221,85.328413 169.574910,92.593945 167.598309,100.025799 165.843776,107.606518 164.315192,115.318291 163.015954,123.142992 161.948955,131.062220 161.116579,139.057349 160.520689,147.109565 160.162619,155.199917 160.043173,163.309873 159.948751,167.155701 159.665711,170.992776 159.194736,174.811341 158.536960,178.602196 157.693968,182.356210 156.667791,186.064338 155.460900,189.717648 154.076204,193.307338 152.517038,196.824760 150.787159,200.261440 148.890733,203.609099 146.832330,206.859673 144.616908,210.005331 142.249804,213.038494 139.736722,215.951854 137.083715,218.738395 134.297174,221.391402 131.383813,223.904485 128.350651,226.271588 125.204993,228.487010 121.954419,230.545413 118.606760,232.441839 115.170079,234.171718 111.652658,235.730884 108.062968,237.115580 104.409658,238.322471 100.701530,239.348648 96.947516,240.191640 93.156661,240.849416 89.338096,241.320391 85.501021,241.603431 81.654680,241.697853 77.808339,241.603431 73.971264,241.320391 70.152699,240.849416 66.361844,240.191640 62.607830,239.348648 58.899702,238.322471 55.246392,237.115580 51.656703,235.730884 48.139281,234.171718 44.702600,232.441839 41.354941,230.545413 38.104367,228.487010 34.958709,226.271588 31.925547,223.904485 29.012186,221.391402 26.225645,218.738395 23.572638,215.951854 21.059556,213.038494 18.692452,210.005331 16.477030,206.859673 14.418627,203.609099 12.522201,200.261440 10.792322,196.824760 9.233156,193.307338 7.848460,189.717648 6.641569,186.064338 5.615392,182.356210 4.772400,178.602196 4.114624,174.811341 3.643649,170.992776 3.360610,167.155701 3.266187,163.309360 3.266187,122.482020 3.266187,81.654680 3.266187,40.827340 3.266187,0.000000 9.798562,0.000000"/>
<polygon class="l0d0" points="-1.633094,40.827340 -1.633094,81.654680 -1.633094,122.482020 -1.633094,163.309360 -1.532770,167.396097 -1.232040,171.472990 -0.731629,175.530215 -0.032742,179.557999 0.862937,183.546638 1.953250,187.486525 3.235571,191.368166 4.706811,195.182211 6.363424,198.919472 8.201421,202.570945 10.216374,206.127833 12.403427,209.581568 14.757313,212.923829 17.272360,216.146564 19.942510,219.242010 22.761331,222.202710 25.722030,225.021530 28.817476,227.691680 32.040211,230.206727 35.382472,232.560613 38.836207,234.747666 42.393095,236.762619 46.044568,238.600616 49.781829,240.257230 53.595874,241.728469 57.477516,243.010790 61.417402,244.101104 65.406041,244.996783 69.433826,245.695669 73.491051,246.196080 77.567943,246.496810 81.654680,246.597134 85.741417,246.496810 89.818309,246.196080 93.875535,245.695669 97.903319,244.996783 101.891958,244.101104 105.831845,243.010790 109.713486,241.728469 113.527531,240.257230 117.264792,238.600616 120.916265,236.762619 124.473153,234.747666 127.926888,232.560613 131.269149,230.206727 134.491884,227.691680 137.587330,225.021530 140.548030,222.202710 143.366850,219.242010 146.037000,216.146564 148.552047,212.923829 150.905933,209.581568 153.092986,206.127833 155.107939,202.570945 156.945936,198.919472 158.602549,195.182211 160.073789,191.368166 161.356110,187.486525 162.446424,183.546638 163.342103,179.557999 164.040989,175.530215 164.541400,171.472990 164.842130,167.396097 164.942454,163.308591 165.059773,155.344266 165.411437,147.398583 165.996570,139.491676 166.813712,131.642817 167.860823,123.871138 169.135286,116.195587 170.633914,108.634881 172.352952,101.207461 174.288088,93.931445 176.434456,86.824585 178.786650,79.904222 181.338729,73.187242 182.687725,69.910162 184.084229,66.690030 185.527352,63.528810 187.016177,60.428428 188.549753,57.390770 190.127101,54.417686 191.747213,51.510983 193.409049,48.672424 195.111543,45.903730 196.853601,43.206577 198.634102,40.582593 200.451896,38.033356 202.305810,35.560397 204.194648,33.165195 206.117187,30.849173 208.072183,28.613704 210.058374,26.460101 212.074474,24.389621 214.119182,22.403462 216.191181,20.502763 218.289140,18.688598 220.411716,16.961982 222.557557,15.323863 224.725303,13.775128 226.913593,12.316597 229.121061,10.949025 231.346346,9.673105 233.588091,8.489463 235.844945,7.398665 238.115569,6.401213 240.398635,5.497553 242.692831,4.688073 244.996860,3.973107 247.309444,3.352940 249.629320,2.827808 251.955242,2.397905 254.285981,2.063384 256.620319,1.824360 258.957050,1.680914 261.294335,1.633094 261.295618,11.431655 259.357617,11.471285 257.419930,11.590241 255.481621,11.788725 253.542456,12.067060 251.602295,12.425682 249.661107,12.865116 247.719001,13.385958 245.776230,13.988850 243.833205,14.674456 241.890498,15.443432 239.948841,16.296409 238.009118,17.233966 236.072360,18.256613 234.139731,19.364771 232.212514,20.558759 230.292099,21.838787 228.379961,23.204943 226.477653,24.657189 224.586785,26.195361 222.709010,27.819163 220.846015,29.528175 218.999503,31.321849 217.171186,33.199516 215.362775,35.160389 213.575971,37.203569 211.812457,39.328051 210.073894,41.532725 208.361913,43.816386 206.678114,46.177740 205.024060,48.615404 203.401276,51.127918 201.811246,53.713742 200.255410,56.371269 198.735165,59.098823 195.806812,64.757000 193.036453,70.673683 190.433617,76.833448 188.007091,83.220134 185.764927,89.816929 183.714443,96.606445 181.862237,103.570786 180.214189,110.691608 178.775473,117.950179 177.550561,125.327430 176.543226,132.804009 175.756552,140.360330 175.192934,147.976619 174.854080,155.632964 174.741015,163.310130 174.628889,167.876890 174.292779,172.433417 173.733496,176.967962 172.952388,181.469603 171.951335,185.927495 170.732749,190.330897 169.299567,194.669202 167.655240,198.931958 165.803730,203.108897 163.749499,207.189955 161.497493,211.165301 159.053139,215.025357 156.422326,218.760825 153.611390,222.362706 150.627105,225.822322 147.476659,229.131339 144.167642,232.281785 140.708026,235.266070 137.106145,238.077006 133.370677,240.707819 129.510620,243.152173 125.535275,245.404179 121.454217,247.458411 117.277278,249.309920 113.014522,250.954247 108.676217,252.387429 104.272815,253.606015 99.814923,254.607068 95.313282,255.388176 90.778736,255.947459 86.222210,256.283569 81.654680,256.395695 77.087150,256.283569 72.530624,255.947459 67.996078,255.388176 63.494437,254.607068 59.036546,253.606015 54.633143,252.387429 50.294838,250.954247 46.032082,249.309920 41.855143,247.458411 37.774085,245.404179 33.798740,243.152173 29.938683,240.707819 26.203215,238.077006 22.601334,235.266070 19.141718,232.281785 15.832701,229.131339 12.682255,225.822322 9.697970,222.362706 6.887034,218.760825 4.256221,215.025357 1.811867,211.165301 -0.440138,207.189955 -2.494370,203.108897 -4.345880,198.931958 -5.990206,194.669202 -7.423389,190.330897 -8.641974,185.927495 -9.643027,181.469603 -10.424136,176.967962 -10.983419,172.433417 -11.319529,167.876890 -11.431655,163.309360 -11.431655,122.482020 -11.431655,81.654680 -11.431655,40.827340 -11.431655,0.000000 -1.633094,0.000000"/>
</g>
</svg>