<?xml version="1.0" encoding="UTF-8"?>
<svg xmlns="http://www.w3.org/2000/svg" xmlns:xlink="http://www.w3.org/1999/xlink"
     width="300.000000" height="150.771870" viewBox="-34.219554 -116.552316 300.000000 150.771870">
<defs>
<style type="text/css">
.l0d1 {fill:none;stroke:black;stroke-dasharray:8,8;}
.l0d0 {stroke: #C2B280; fill: #C2B280; fill-opacity: 0.5;}
</style>
</defs>
<rect x="-34.219554" y="-116.552316" width="300.000000" height="150.771870" fill="none" stroke="none"/>
<g id="boolean_operations" transform="scale(1 -1)">
<polygon class="l0d0" points="252.144082,102.915952 -20.583190,102.915952 -20.583190,20.583190 5.145798,20.583190 5.145798,66.895369 10.291595,66.895369 10.291595,72.041166 30.874786,72.041166 30.874786,66.895369 36.020583,66.895369 36.020583,56.603774 25.728988,56.603774 25.728988,66.895369 15.437393,66.895369 15.437393,20.583190 25.728988,20.583190 25.728988,41.166381 20.583190,41.166381 20.583190,46.312178 36.020583,46.312178 36.020583,15.437393 51.457976,15.437393 51.457976,72.041166 72.041166,72.041166 72.041166,66.895369 77.186964,66.895369 77.186964,61.749571 82.332762,61.749571 82.332762,25.728988 77.186964,25.728988 77.186964,20.583190 97.770154,20.583190 97.770154,30.874786 108.061750,30.874786 108.061750,20.583190 118.353345,20.583190 118.353345,36.020583 113.207547,36.020583 113.207547,41.166381 108.061750,41.166381 108.061750,46.312178 102.915952,46.312178 102.915952,51.457976 97.770154,51.457976 97.770154,66.895369 102.915952,66.895369 102.915952,72.041166 123.499142,72.041166 123.499142,66.895369 144.082333,66.895369 144.082333,72.041166 174.957118,72.041166 174.957118,66.895369 164.665523,66.895369 164.665523,15.437393 185.248714,15.437393 185.248714,72.041166 195.540309,72.041166 195.540309,46.312178 200.686106,46.312178 200.686106,51.457976 205.831904,51.457976 205.831904,61.749571 210.977702,61.749571 210.977702,72.041166 221.269297,72.041166 221.269297,61.749571 216.123499,61.749571 216.123499,51.457976 210.977702,51.457976 210.977702,46.312178 205.831904,46.312178 205.831904,41.166381 210.977702,41.166381 210.977702,36.020583 216.123499,36.020583 216.123499,25.728988 221.269297,25.728988 221.269297,15.437393 210.977702,15.437393 210.977702,25.728988 205.831904,25.728988 205.831904,36.020583 200.686106,36.020583 200.686106,41.166381 195.540309,41.166381 195.540309,15.437393 185.248714,15.437393 164.665523,15.437393 154.373928,15.437393 154.373928,66.895369 144.082333,66.895369 123.499142,66.895369 128.644940,66.895369 128.644940,56.603774 118.353345,56.603774 118.353345,66.895369 108.061750,66.895369 108.061750,51.457976 113.207547,51.457976 113.207547,46.312178 118.353345,46.312178 118.353345,41.166381 123.499142,41.166381 123.499142,36.020583 128.644940,36.020583 128.644940,20.583190 123.499142,20.583190 123.499142,15.437393 102.915952,15.437393 102.915952,20.583190 97.770154,20.583190 77.186964,20.583190 72.041166,20.583190 72.041166,15.437393 51.457976,15.437393 36.020583,15.437393 10.291595,15.437393 10.291595,20.583190 5.145798,20.583190 -20.583190,20.583190 -20.583190,-20.583190 252.144082,-20.583190"/>
<polygon class="l0d0" points="66.895369,20.583190 66.895369,25.728988 72.041166,25.728988 72.041166,61.749571 66.895369,61.749571 66.895369,66.895369 61.749571,66.895369 61.749571,20.583190"/>
</g>
</svg>