<?xml version="1.0" encoding="UTF-8"?>
<svg xmlns="http://www.w3.org/2000/svg" xmlns:xlink="http://www.w3.org/1999/xlink"
     width="301.998002" height="321.978022" viewBox="-159.490509 -327.322677 301.998002 321.978022">
<defs>
<style type="text/css">
.l0d1 {fill:none;stroke:black;stroke-dasharray:8,8;}
.l0d0 {stroke: #C2B280; fill: #C2B280; fill-opacity: 0.5;}
</style>
<g id="F_CELL">
<polygon class="l0d0" points="21.192011,21.192011 21.192011,63.576034 42.384023,63.576034 42.384023,70.640038 21.192011,70.640038 21.192011,91.832050 49.448027,91.832050 49.448027,98.896053 7.064004,98.896053 7.064004,21.192011"/>
</g>
</defs>
<rect x="-159.490509" y="-327.322677" width="301.998002" height="321.978022" fill="none" stroke="none"/>
<g id="bounding_box" transform="scale(1 -1)">
<polygon class="l0d1" points="-144.855145,19.980020 127.872128,19.980020 127.872128,312.687313 -144.855145,312.687313"/>
<use transform="translate(0.000000 0.000000) rotate(45.000000)" xlink:href="#F_CELL"/>
<use transform="translate(0.000000 0.000000) rotate(45.000000) translate(90.419249 0.000000)" xlink:href="#F_CELL"/>
<use transform="translate(0.000000 0.000000) rotate(45.000000) translate(180.838497 0.000000)" xlink:href="#F_CELL"/>
<use transform="translate(0.000000 0.000000) rotate(45.000000) translate(0.000000 113.024061)" xlink:href="#F_CELL"/>
<use transform="translate(0.000000 0.000000) rotate(45.000000) translate(90.419249 113.024061)" xlink:href="#F_CELL"/>
<use transform="translate(0.000000 0.000000) rotate(45.000000) translate(180.838497 113.024061)" xlink:href="#F_CELL"/>
</g>
</svg>