<?xml version="1.0" encoding="UTF-8"?>
<svg xmlns="http://www.w3.org/2000/svg" xmlns:xlink="http://www.w3.org/1999/xlink"
     width="303.868353" height="342.551879" viewBox="-27.449429 -322.583440 303.868353 342.551879">
<defs>
<style type="text/css">
.l0d1 {fill:none;stroke:black;stroke-dasharray:8,8;}
.l0d0 {stroke: #C2B280; fill: #C2B280; fill-opacity: 0.5;}
</style>
</defs>
<rect x="-27.449429" y="-322.583440" width="303.868353" height="342.551879" fill="none" stroke="none"/>
<g id="cubic_smooth" transform="scale(1 -1)">
<polygon class="l0d0" points="11.007994,2.309491 14.708860,9.280300 18.143197,16.495381 21.313785,23.936558 24.223093,31.585961 26.873283,39.425937 29.266226,47.438984 31.403521,55.607700 33.286526,63.914745 34.916376,72.342813 36.294010,80.874618 37.420188,89.492877 38.295508,98.180308 38.920424,106.919626 39.295249,115.693537 39.420170,124.484747 39.295249,133.275957 38.920424,142.049868 38.295508,150.789186 37.420188,159.476617 36.294010,168.094877 34.916376,176.626681 33.286526,185.054749 31.403521,193.361794 29.266226,201.530510 26.873283,209.543557 24.223093,217.383533 21.313785,225.032936 18.143197,232.474113 14.708860,239.689195 11.007994,246.660003 7.037870,253.367393 5.846352,255.541753 5.122708,257.408574 4.773921,258.978783 4.706428,260.316008 4.862555,261.534795 5.247372,262.762147 5.917702,264.087536 6.943654,265.541332 8.376947,267.108040 10.241461,268.751175 12.538358,270.431451 15.254738,272.115074 18.370493,273.775747 21.862525,275.393949 25.706967,276.955494 29.880231,278.450130 39.122388,281.211009 49.414961,283.638097 60.594443,285.710304 72.504933,287.415641 84.995656,288.747083 97.919188,289.700455 111.130234,290.273322 124.484747,290.464410 137.839260,290.273322 151.050306,289.700455 163.973838,288.747083 176.464561,287.415641 188.375051,285.710304 199.554533,283.638097 209.847106,281.211009 219.089264,278.450130 223.262527,276.955494 227.106970,275.393949 230.599001,273.775747 233.714757,272.115074 236.431136,270.431451 238.728033,268.751175 240.592547,267.108040 242.025840,265.541332 243.051792,264.087536 243.722123,262.762147 244.106939,261.534795 244.263066,260.316008 244.195573,258.978783 243.846786,257.408574 243.123142,255.541753 241.930389,253.365415 237.961500,246.660003 234.260634,239.689195 230.826298,232.474113 227.655710,225.032936 224.746401,217.383533 222.096211,209.543557 219.703268,201.530510 217.565973,193.361794 215.682968,185.054749 214.053118,176.626681 212.675484,168.094877 211.549306,159.476617 210.673986,150.789186 210.049071,142.049868 209.674245,133.275957 209.549324,124.484747 209.674245,115.693537 210.049071,106.919626 210.673986,98.180308 211.549306,89.492877 212.675484,80.874618 214.053118,72.342813 215.682968,63.914745 217.565973,55.607700 219.703268,47.438984 222.096211,39.425937 224.746401,31.585961 227.655710,23.936558 230.826298,16.495381 234.260634,9.280300 237.961500,2.309491 241.931625,-4.397899 256.007364,4.397899 252.440326,10.424667 249.090298,16.735068 245.960009,23.311778 243.052240,30.136504 240.369461,37.190646 237.913831,44.455387 235.687222,51.911758 233.691235,59.540691 231.927226,67.323057 230.396330,75.239690 229.099487,83.271408 228.037457,91.399021 227.210837,99.603343 226.620081,107.865190 226.265504,116.165383 226.147291,124.484747 226.265504,132.804112 226.620081,141.104304 227.210837,149.366151 228.037457,157.570473 229.099487,165.698087 230.396330,173.729804 231.927226,181.646438 233.691235,189.428803 235.687222,197.057736 237.913831,204.514107 240.369461,211.778848 243.052240,218.832990 245.960009,225.657717 249.090298,232.234427 252.440326,238.544828 256.008599,244.573573 257.678886,247.525881 259.024597,250.542580 260.272500,254.663573 260.644250,256.757634 260.837863,258.862197 260.848383,260.963871 260.674403,263.046752 260.318795,265.094038 259.788701,267.089899 259.094747,269.021132 257.267253,272.655682 254.940611,275.967318 252.200733,278.971534 249.105687,281.704816 245.690829,284.206449 241.977446,286.510228 237.979624,288.642451 233.708455,290.622635 229.174263,292.464970 224.387648,294.179707 219.359897,295.774265 208.630038,298.623031 197.089789,301.039626 184.853328,303.039880 172.041104,304.632944 158.777729,305.824231 145.190495,306.616949 131.408351,307.012900 117.561143,307.012900 103.778999,306.616949 90.191765,305.824231 76.928390,304.632944 64.116167,303.039880 51.879705,301.039626 40.339456,298.623031 29.609598,295.774265 24.581846,294.179707 19.795232,292.464970 15.261039,290.622635 10.989870,288.642451 6.992048,286.510228 3.278666,284.206449 -0.136193,281.704816 -3.231239,278.971534 -5.971117,275.967318 -8.297759,272.655682 -10.125253,269.021132 -10.819206,267.089899 -11.349301,265.094038 -11.704909,263.046752 -11.878889,260.963871 -11.868368,258.862197 -11.674756,256.757634 -11.303006,254.663573 -10.760384,252.589875 -9.195147,248.524219 -7.037870,244.571595 -3.470832,238.544828 -0.120804,232.234427 3.009485,225.657717 5.917254,218.832990 8.600034,211.778848 11.055663,204.514107 13.282272,197.057736 15.278259,189.428803 17.042268,181.646438 18.573164,173.729804 19.870007,165.698087 20.932037,157.570473 21.758657,149.366151 22.349413,141.104304 22.703991,132.804112 22.822204,124.484747 22.703991,116.165383 22.349413,107.865190 21.758657,99.603343 20.932037,91.399021 19.870007,83.271408 18.573164,75.239690 17.042268,67.323057 15.278259,59.540691 13.282272,51.911758 11.055663,44.455387 8.600034,37.190646 5.917254,30.136504 3.009485,23.311778 -0.120804,16.735068 -3.470832,10.424667 -7.037870,4.397899 7.037870,-4.397899"/>
</g>
</svg>