<?xml version="1.0" encoding="UTF-8"?>
<svg xmlns="http://www.w3.org/2000/svg" xmlns:xlink="http://www.w3.org/1999/xlink"
     width="300.000000" height="231.818182" viewBox="-150.000000 -115.909091 300.000000 231.818182">
<defs>
<style type="text/css">
.l0d1 {fill:none;stroke:black;stroke-dasharray:8,8;}
.l0d0 {stroke: #C2B280; fill: #C2B280; fill-opacity: 0.5;}
</style>
</defs>
<rect x="-150.000000" y="-115.909091" width="300.000000" height="231.818182" fill="none" stroke="none"/>
<g id="fillet_operation" transform="scale(1 -1)">
<polygon class="l0d0" points="-110.795455,-34.090909 -117.412987,-34.962124 -123.579545,-37.516396 -128.874889,-41.579656 -132.938150,-46.875000 -135.492422,-53.041559 -136.363636,-59.659091 -136.363636,-76.704545 -135.492422,-83.322078 -132.938150,-89.488636 -128.874889,-94.783980 -123.579545,-98.847240 -117.412987,-101.401513 -110.795455,-102.272727 8.522727,-102.272727 15.140260,-101.401513 21.306818,-98.847240 26.602162,-94.783980 30.665422,-89.488636 33.219694,-83.322078 34.090909,-76.704545 34.090909,8.522727 34.962124,15.140260 37.516396,21.306818 41.579656,26.602162 46.875000,30.665422 53.041559,33.219694 59.659091,34.090909 110.795455,34.090909 117.412987,34.962124 123.579545,37.516396 128.874889,41.579656 132.938150,46.875000 135.492422,53.041559 136.363636,59.659091 136.363636,76.704545 135.492422,83.322078 132.938150,89.488636 128.874889,94.783980 123.579545,98.847240 117.412987,101.401513 110.795455,102.272727 -8.522727,102.272727 -15.140260,101.401513 -21.306818,98.847240 -26.602162,94.783980 -30.665422,89.488636 -33.219694,83.322078 -34.090909,76.704545 -34.090909,-8.522727 -34.962124,-15.140260 -37.516396,-21.306818 -41.579656,-26.602162 -46.875000,-30.665422 -53.041559,-33.219694 -59.659091,-34.090909"/>
</g>
</svg>