<?xml version="1.0" encoding="UTF-8"?>
<svg xmlns="http://www.w3.org/2000/svg" xmlns:xlink="http://www.w3.org/1999/xlink"
     width="300.000000" height="272.532707" viewBox="-162.855154 -150.742976 300.000000 272.532707">
<defs>
<style type="text/css">
.l0d1 {fill:none;stroke:black;stroke-dasharray:8,8;}
.l0d0 {stroke: #C2B280; fill: #C2B280; fill-opacity: 0.5;}
</style>
</defs>
<rect x="-162.855154" y="-150.742976" width="300.000000" height="272.532707" fill="none" stroke="none"/>
<g id="parametric" transform="scale(1 -1)">
<polygon class="l0d0" points="6.671872,-6.979711 9.658890,-6.736009 14.077599,-6.011000 17.579705,-5.031861 20.559193,-3.841559 23.160899,-2.470955 25.455381,-0.945748 27.483223,0.711529 29.270887,2.480864 30.837454,4.344503 32.197768,6.286782 33.364007,8.293933 34.346497,10.353872 35.154174,12.455969 35.794861,14.590823 36.275459,16.750042 36.602094,18.926061 36.780240,21.111979 36.710301,25.488435 36.100024,29.832981 34.978881,34.103597 33.373355,38.261197 31.308390,42.268805 28.808447,46.091166 25.898266,49.694600 22.603385,53.047006 18.950495,56.117955 14.967646,58.878822 10.684364,61.302949 6.131679,63.365805 1.342104,65.045155 -3.650446,66.321212 -8.810766,67.176780 -14.102503,67.597389 -19.488328,67.571407 -24.930122,67.090135 -30.389179,66.147889 -35.826425,64.742056 -41.202643,62.873138 -46.478706,60.544771 -51.615811,57.763725 -56.575725,54.539883 -61.321017,50.886207 -65.815304,46.818672 -70.023476,42.356190 -73.911935,37.520514 -77.448809,32.336118 -80.604169,26.830065 -83.350231,21.031854 -85.661547,14.973252 -87.515188,8.688115 -88.890902,2.212186 -89.771266,-4.417116 -90.141823,-11.160912 -89.991191,-17.979101 -89.311164,-24.830601 -88.096789,-31.673595 -86.346430,-38.465794 -84.061799,-45.164688 -81.247983,-51.727817 -77.913436,-58.113032 -74.069961,-64.278764 -69.732666,-70.184281 -64.919898,-75.789952 -59.653164,-81.057504 -56.857118,-83.552956 -53.957022,-85.950265 -50.956403,-88.245137 -47.858962,-90.433408 -44.668571,-92.511051 -41.389264,-94.474182 -38.025237,-96.319067 -34.580836,-98.042130 -31.060558,-99.639956 -27.469039,-101.109298 -23.811051,-102.447087 -20.091494,-103.650430 -16.315389,-104.716620 -12.487872,-105.643142 -8.614187,-106.427673 -4.699677,-107.068091 -0.749776,-107.562476 3.229996,-107.909116 7.234043,-108.106509 11.256700,-108.153368 15.292244,-108.048621 19.334897,-107.791416 23.378840,-107.381124 27.418219,-106.817337 31.447152,-106.099876 35.459741,-105.228786 39.450078,-104.204339 43.412257,-103.027038 47.340378,-101.697611 51.228562,-100.217018 55.070952,-98.586444 58.861731,-96.807303 62.595123,-94.881235 66.265405,-92.810105 69.866919,-90.596002 73.394073,-88.241233 76.841357,-85.748326 80.203346,-83.120025 83.474713,-80.359286 86.650236,-77.469275 89.724801,-74.453361 92.693420,-71.315119 95.551230,-68.058317 98.293504,-64.686918 100.915660,-61.205071 103.413268,-57.617109 105.782053,-53.927539 108.017907,-50.141041 110.116896,-46.262458 112.075262,-42.296794 113.889432,-38.249200 115.556025,-34.124977 117.071855,-29.929560 118.433940,-25.668515 119.639506,-21.347532 120.685988,-16.972413 121.571041,-12.549070 122.292540,-8.083511 122.848587,-3.581837 123.237512,0.949771 123.457878,5.505058 123.508483,10.077706 123.388363,14.661339 123.096798,19.249538 122.633307,23.835843 121.997656,28.413769 121.189856,32.976811 120.210166,37.518453 119.059091,42.032183 117.737386,46.511495 116.246053,50.949903 114.586341,55.340950 112.759746,59.678217 110.768010,63.955330 108.613119,68.165975 106.297300,72.303901 103.823022,76.362935 101.192989,80.336988 98.410141,84.220063 95.477650,88.006268 92.398912,91.689820 89.177551,95.265060 85.817406,98.726455 82.322534,102.068611 78.697199,105.286279 74.945872,108.374364 71.073219,111.327935 67.084101,114.142228 62.983567,116.812657 58.776843,119.334821 54.469329,121.704510 50.066592,123.917711 45.574358,125.970619 40.998504,127.859636 36.345049,129.581384 31.620150,131.132706 26.830087,132.510674 21.981264,133.712592 17.080190,134.736003 12.133477,135.578692 7.147830,136.238689 2.130035,136.714276 -2.913047,137.003986 -7.974495,137.106612 -13.047328,137.021203 -18.124525,136.747071 -23.199029,136.283791 -28.263758,135.631204 -33.311615,134.789415 -38.335500,133.758799 -43.328317,132.539997 -48.282986,131.133917 -53.192452,129.541736 -58.049696,127.764896 -62.847747,125.805107 -67.579686,123.664339 -72.238663,121.344828 -76.817904,118.849068 -81.310718,116.179812 -85.710513,113.340067 -90.010800,110.333088 -94.205207,107.162383 -98.287483,103.831698 -102.251513,100.345022 -106.091326,96.706574 -109.801099,92.920806 -113.375172,88.992391 -116.808054,84.926219 -120.094432,80.727393 -123.229175,76.401221 -126.207349,71.953207 -129.024220,67.389049 -131.675262,62.714626 -134.156165,57.935996 -136.462842,53.059381 -138.591433,48.091166 -140.538316,43.037888 -142.300106,37.906223 -143.873669,32.702984 -145.256119,27.435107 -146.444830,22.109644 -147.437436,16.733753 -148.231837,11.314687 -148.826200,5.859785 -149.218790,0.379826 -135.026826,-0.379826 -134.425476,7.051721 -133.797555,11.967683 -132.989757,16.846931 -132.003935,21.682881 -130.842181,26.469033 -129.506823,31.198982 -128.000426,35.866428 -126.325781,40.465183 -124.485903,44.989180 -122.484028,49.432481 -120.323604,53.789284 -118.008285,58.053931 -115.541932,62.220917 -112.928596,66.284897 -110.172520,70.240689 -107.278130,74.083287 -104.250027,77.807861 -101.092979,81.409769 -97.811917,84.884558 -94.411923,88.227974 -90.898226,91.435962 -87.276192,94.504677 -83.551318,97.430484 -79.729220,100.209964 -75.815627,102.839918 -71.816373,105.317370 -67.737386,107.639573 -63.584682,109.804006 -59.364354,111.808385 -55.082564,113.650658 -50.745534,115.329011 -46.359534,116.841868 -41.930880,118.187894 -37.465917,119.365993 -32.971013,120.375311 -28.452551,121.215236 -23.916921,121.885396 -19.370503,122.385663 -14.819670,122.716145 -10.270768,122.877193 -5.730113,122.869392 -1.203982,122.693565 3.301399,122.350769 7.779861,121.842289 12.225302,121.169641 16.631693,120.334566 20.993091,119.339025 25.303641,118.185198 29.557591,116.875479 33.749292,115.412471 37.873214,113.798982 41.923945,112.038021 45.896207,110.132789 49.784854,108.086681 53.584887,105.903271 57.291454,103.586313 60.899862,101.139732 64.405577,98.567619 67.804235,95.874223 71.091647,93.063944 74.263799,90.141328 77.316865,87.111057 80.247205,83.977944 83.051372,80.746925 85.726119,77.423050 88.268395,74.011477 90.675358,70.517462 92.944372,66.946353 95.073010,63.303581 97.059060,59.594651 98.900526,55.825135 100.595626,52.000663 102.142799,48.126913 103.540705,44.209607 104.788222,40.254496 105.884453,36.267358 106.828720,32.253985 107.620568,28.220176 108.259764,24.171730 108.746295,20.114434 109.080368,16.054057 109.262408,11.996343 109.293057,7.946999 109.173171,3.911691 108.903821,-0.103969 108.486284,-4.094426 107.922046,-8.054193 107.212799,-11.977858 106.360432,-15.860089 105.367031,-19.695648 104.234876,-23.479391 102.966435,-27.206279 101.564358,-30.871385 100.031478,-34.469897 98.370796,-37.997131 96.585487,-41.448532 94.678886,-44.819680 92.654485,-48.106301 90.515930,-51.304267 88.267009,-54.409604 85.911652,-57.418496 80.897995,-63.132510 75.508910,-68.419139 69.780134,-73.254038 63.748962,-77.615798 57.454005,-81.486051 50.934947,-84.849541 44.232300,-87.694187 37.387146,-90.011123 30.440892,-91.794718 23.435009,-93.042574 16.410790,-93.755508 9.409091,-93.937513 2.470100,-93.595701 -4.366911,-92.740228 -11.063809,-91.384195 -17.583824,-89.543543 -23.891759,-87.236919 -29.954191,-84.485538 -35.739655,-81.313021 -41.218822,-77.745224 -46.364652,-73.810057 -51.152546,-69.537283 -55.560466,-64.958316 -59.569050,-60.106009 -63.161704,-55.014428 -66.324678,-49.718624 -69.047122,-44.254409 -71.321126,-38.658110 -73.141741,-32.966340 -74.506975,-27.215760 -75.417783,-21.442840 -75.878027,-15.683630 -75.894424,-9.973527 -75.476474,-4.347057 -74.636372,1.162344 -73.388903,6.522543 -71.751324,11.702899 -69.743224,16.674460 -67.386380,21.410139 -64.704590,25.884873 -61.723505,30.075780 -58.470437,33.962295 -54.974170,37.526286 -51.264755,40.752170 -47.373301,43.626994 -43.331761,46.140515 -39.172709,48.285253 -34.929119,50.056535 -30.634144,51.452516 -26.320885,52.474190 -22.022172,53.125376 -17.770343,53.412699 -13.597022,53.345544 -9.532910,52.936011 -5.607573,52.198842 -1.849242,51.151342 1.715384,49.813294 5.061324,48.206857 8.165503,46.356460 11.006925,44.288688 13.566850,42.032161 15.828964,39.617411 17.779551,37.076740 19.407672,34.444070 20.705343,31.754755 21.667714,29.045344 22.293223,26.353230 22.583656,23.716116 22.543973,21.171171 22.181535,18.753689 21.503966,16.495048 20.514048,14.419887 19.198253,12.542983 17.501512,10.867807 15.268146,9.392017 13.837312,8.731769 12.061980,8.131750 9.693712,7.609845 5.888000,7.210936 -0.006697,7.106137 0.006697,-7.106137"/>
</g>
</svg>