<?xml version="1.0" encoding="UTF-8"?>
<svg xmlns="http://www.w3.org/2000/svg" xmlns:xlink="http://www.w3.org/1999/xlink"
     width="300.000000" height="163.602273" viewBox="-132.954545 -81.801136 300.000000 163.602273">
<defs>
<style type="text/css">
.l0d1 {fill:none;stroke:black;stroke-dasharray:8,8;}
.l1d0 {stroke: #F6A600; fill: #F6A600; fill-opacity: 0.5;}
.l0d0 {stroke: #C2B280; fill: #C2B280; fill-opacity: 0.5;}
</style>
</defs>
<rect x="-132.954545" y="-81.801136" width="300.000000" height="163.602273" fill="none" stroke="none"/>
<g id="slice" transform="scale(1 -1)">
<polygon class="l0d0" points="-85.227273,39.366477 -119.318182,-19.678977 -85.227273,-19.678977"/>
<polygon class="l0d0" points="-85.227273,39.366477 -85.227273,-19.678977 -51.136364,-19.678977"/>
<polygon class="l1d0" points="51.136364,-25.508523 50.752841,-25.048295 47.880682,-20.531250 45.605114,-15.690341 43.951705,-10.593750 42.946023,-5.343750 42.613636,0.000000 42.946023,5.343750 43.951705,10.593750 45.605114,15.690341 47.880682,20.531250 50.752841,25.048295 51.136364,25.508523 51.136364,59.045455 45.426136,55.363636 40.116477,51.119318 35.250000,46.372159 30.877841,41.164773 27.051136,35.548295 23.795455,29.582386 21.153409,23.318182 19.150568,16.823864 17.803977,10.159091 17.130682,3.400568 17.130682,-3.400568 17.803977,-10.159091 19.150568,-16.823864 21.153409,-23.318182 23.795455,-29.582386 27.051136,-35.548295 30.877841,-41.164773 35.250000,-46.372159 40.116477,-51.119318 45.426136,-55.363636 51.136364,-59.045455"/>
<polygon class="l1d0" points="119.318182,58.951705 116.335227,60.673295 110.139205,63.468750 103.696023,65.633523 97.065341,67.142045 90.323864,67.994318 83.531250,68.164773 76.747159,67.653409 70.056818,66.468750 63.511364,64.627841 57.187500,62.147727 51.136364,59.045455 51.136364,25.508523 54.161932,29.173295 58.065341,32.838068 62.394886,35.982955 67.082386,38.556818 72.059659,40.525568 77.241477,41.855114 82.551136,42.528409 87.903409,42.528409 93.213068,41.855114 98.394886,40.525568 103.372159,38.556818 108.059659,35.982955 112.389205,32.838068 116.292614,29.173295 119.318182,25.508523"/>
<polygon class="l1d0" points="90.323864,-67.994318 97.065341,-67.142045 103.696023,-65.633523 110.139205,-63.468750 116.335227,-60.673295 119.318182,-58.951705 119.318182,-25.508523 116.292614,-29.173295 112.389205,-32.838068 108.059659,-35.982955 103.372159,-38.556818 98.394886,-40.525568 93.213068,-41.855114 87.903409,-42.528409 82.551136,-42.528409 77.241477,-41.855114 72.059659,-40.525568 67.082386,-38.556818 62.394886,-35.982955 58.065341,-32.838068 54.161932,-29.173295 51.136364,-25.508523 51.136364,-59.045455 57.187500,-62.147727 63.511364,-64.627841 70.056818,-66.468750 76.747159,-67.653409 83.531250,-68.164773"/>
<polygon class="l1d0" points="126.502841,-10.593750 124.849432,-15.690341 122.573864,-20.531250 119.701705,-25.048295 119.318182,-25.508523 119.318182,-58.951705 122.215909,-57.272727 127.738636,-53.309659 132.835227,-48.809659 137.454545,-43.823864 141.562500,-38.411932 145.107955,-32.607955 148.056818,-26.480114 150.383523,-20.096591 152.053977,-13.508523 153.068182,-6.792614 153.409091,0.000000 153.068182,6.792614 152.053977,13.508523 150.383523,20.096591 148.056818,26.480114 145.107955,32.607955 141.562500,38.411932 137.454545,43.823864 132.835227,48.809659 127.738636,53.309659 122.215909,57.272727 119.318182,58.951705 119.318182,25.508523 119.701705,25.048295 122.573864,20.531250 124.849432,15.690341 126.502841,10.593750 127.508523,5.343750 127.840909,0.000000 127.508523,-5.343750"/>
</g>
</svg>