<?xml version="1.0" encoding="UTF-8"?>
<svg xmlns="http://www.w3.org/2000/svg" xmlns:xlink="http://www.w3.org/1999/xlink"
     width="300.000000" height="222.077922" viewBox="-13.636364 -208.441558 300.000000 222.077922">
<defs>
<style type="text/css">
.l0d1 {fill:none;stroke:black;stroke-dasharray:8,8;}
.l0d0 {stroke: #C2B280; fill: #C2B280; fill-opacity: 0.5;}
.l10d0 {stroke: #008856; fill: #008856; fill-opacity: 0.5;}
.l0t2 {stroke: #2B3D26; fill: #2B3D26; fill-opacity: 0.5;}
</style>
</defs>
<rect x="-13.636364" y="-208.441558" width="300.000000" height="222.077922" fill="none" stroke="none"/>
<g id="text" transform="scale(1 -1)">
<polygon class="l0d0" points="12.987013,187.929717 9.549274,187.929717 9.549274,184.491979 16.424752,184.491979 16.424752,160.427807 9.549274,160.427807 9.549274,156.990069 30.175707,156.990069 30.175707,160.427807 23.300229,160.427807 23.300229,194.805195 16.424752,194.805195 16.424752,191.367456 12.987013,191.367456"/>
<polygon class="l0d0" points="40.488923,184.491979 47.364400,184.491979 47.364400,191.367456 54.239878,191.367456 54.239878,177.616501 50.802139,177.616501 50.802139,174.178762 47.364400,174.178762 47.364400,170.741024 43.926662,170.741024 43.926662,167.303285 40.488923,167.303285 40.488923,156.990069 61.115355,156.990069 61.115355,160.427807 47.364400,160.427807 47.364400,167.303285 50.802139,167.303285 50.802139,170.741024 54.239878,170.741024 54.239878,174.178762 57.677617,174.178762 57.677617,177.616501 61.115355,177.616501 61.115355,191.367456 57.677617,191.367456 57.677617,194.805195 43.926662,194.805195 43.926662,191.367456 40.488923,191.367456"/>
<polygon class="l0d0" points="74.866310,160.427807 74.866310,156.990069 88.617265,156.990069 88.617265,160.427807 92.055004,160.427807 92.055004,174.178762 88.617265,174.178762 88.617265,177.616501 92.055004,177.616501 92.055004,191.367456 88.617265,191.367456 88.617265,194.805195 74.866310,194.805195 74.866310,191.367456 71.428571,191.367456 71.428571,184.491979 78.304049,184.491979 78.304049,191.367456 85.179526,191.367456 85.179526,177.616501 78.304049,177.616501 78.304049,174.178762 85.179526,174.178762 85.179526,160.427807 78.304049,160.427807 78.304049,167.303285 71.428571,167.303285 71.428571,160.427807"/>
<polygon class="l0d0" points="119.556914,156.990069 119.556914,170.741024 122.994652,170.741024 122.994652,174.178762 119.556914,174.178762 119.556914,194.805195 112.681436,194.805195 112.681436,191.367456 109.243697,191.367456 109.243697,187.929717 105.805959,187.929717 105.805959,184.491979 102.368220,184.491979 102.368220,181.054240 98.930481,181.054240 98.930481,174.178762 105.805959,174.178762 105.805959,181.054240 109.243697,181.054240 109.243697,184.491979 112.681436,184.491979 112.681436,174.178762 105.805959,174.178762 98.930481,174.178762 98.930481,170.741024 112.681436,170.741024 112.681436,156.990069"/>
<polygon class="l0d0" points="136.745607,160.427807 136.745607,156.990069 150.496562,156.990069 150.496562,160.427807 153.934301,160.427807 153.934301,177.616501 150.496562,177.616501 150.496562,181.054240 140.183346,181.054240 140.183346,191.367456 153.934301,191.367456 153.934301,194.805195 133.307869,194.805195 133.307869,177.616501 147.058824,177.616501 147.058824,160.427807 140.183346,160.427807 140.183346,167.303285 133.307869,167.303285 133.307869,160.427807"/>
<polygon class="l0d0" points="263.559969,104.660046 263.559969,116.119175 268.143621,116.119175 268.143621,104.660046 272.727273,104.660046 272.727273,125.286478 270.435447,125.286478 270.435447,127.578304 268.143621,127.578304 268.143621,129.870130 263.559969,129.870130 263.559969,127.578304 261.268144,127.578304 261.268144,125.286478 258.976318,125.286478 258.976318,118.411001 263.559969,118.411001 263.559969,125.286478 268.143621,125.286478 268.143621,118.411001 263.559969,118.411001 258.976318,118.411001 258.976318,104.660046"/>
<polygon class="l0d0" points="272.727273,72.574484 270.435447,72.574484 270.435447,74.866310 268.143621,74.866310 268.143621,77.158136 270.435447,77.158136 270.435447,79.449962 272.727273,79.449962 272.727273,86.325439 270.435447,86.325439 270.435447,88.617265 258.976318,88.617265 258.976318,77.158136 263.559969,77.158136 263.559969,86.325439 268.143621,86.325439 268.143621,79.449962 265.851795,79.449962 265.851795,77.158136 263.559969,77.158136 258.976318,77.158136 258.976318,65.699007 263.559969,65.699007 263.559969,74.866310 265.851795,74.866310 265.851795,72.574484 268.143621,72.574484 268.143621,65.699007 263.559969,65.699007 258.976318,65.699007 258.976318,63.407181 270.435447,63.407181 270.435447,65.699007 272.727273,65.699007"/>
<polygon class="l0d0" points="258.976318,24.446142 261.268144,24.446142 261.268144,22.154316 270.435447,22.154316 270.435447,24.446142 272.727273,24.446142 272.727273,29.029794 268.143621,29.029794 268.143621,24.446142 263.559969,24.446142 263.559969,45.072574 268.143621,45.072574 268.143621,40.488923 272.727273,40.488923 272.727273,45.072574 270.435447,45.072574 270.435447,47.364400 261.268144,47.364400 261.268144,45.072574 258.976318,45.072574"/>
<polygon class="l10d0" points="0.000000,0.000000 244.461421,0.000000 244.461421,146.676853 0.000000,146.676853"/>
<text class="l0t2" text-anchor="middle" dominant-baseline="central" transform="scale(1 -1) translate(122.230710 -73.338426)">Sample label</text>
</g>
</svg>