<?xml version="1.0" encoding="UTF-8"?>
<svg xmlns="http://www.w3.org/2000/svg" xmlns:xlink="http://www.w3.org/1999/xlink"
     width="300.000000" height="219.786096" viewBox="-13.636364 -206.149733 300.000000 219.786096">
<defs>
<style type="text/css">
.l0d7 {stroke: #F99379; fill: #F99379; fill-opacity: 0.5;}
.l0d1 {fill:none;stroke:black;stroke-dasharray:8,8;}
.l2d3 {stroke: #F6A600; fill: #F6A600; fill-opacity: 0.5;}
.l0d0 {stroke: #C2B280; fill: #C2B280; fill-opacity: 0.5;}
.l1d3 {stroke: #008856; fill: #008856; fill-opacity: 0.5;}
</style>
<g id="DEVICE">
<polygon class="l0d0" points="0.000000,0.000000 80.213904,0.000000 80.213904,80.213904 0.000000,80.213904 0.000000,0.000000 32.085561,32.085561 32.085561,48.128342 48.128342,48.128342 48.128342,32.085561 32.085561,32.085561"/>
<use transform="translate(56.149733 16.042781) scale(0.250000)" xlink:href="#CONTACT"/>
<use transform="translate(16.042781 56.149733) rotate(90.000000) scale(0.250000)" xlink:href="#CONTACT"/>
</g>
<g id="CONTACT">
<polygon class="l1d3" points="-48.128342,-48.128342 48.128342,-48.128342 48.128342,48.128342 -48.128342,48.128342"/>
<polygon class="l2d3" points="-80.213904,-48.128342 -48.128342,-48.128342 -48.128342,48.128342 -80.213904,48.128342"/>
<polygon class="l2d3" points="80.213904,-48.128342 48.128342,-48.128342 48.128342,48.128342 80.213904,48.128342"/>
<polygon class="l0d7" points="16.042781,-27.786911 32.085561,-0.000000 16.042781,27.786911 -16.042781,27.786911 -32.085561,0.000000 -16.042781,-27.786911"/>
</g>
</defs>
<rect x="-13.636364" y="-206.149733" width="300.000000" height="219.786096" fill="none" stroke="none"/>
<g id="references" transform="scale(1 -1)">
<use transform="translate(0.000000 0.000000)" xlink:href="#DEVICE"/>
<use transform="translate(0.000000 0.000000) translate(96.256684 0.000000)" xlink:href="#DEVICE"/>
<use transform="translate(0.000000 0.000000) translate(192.513369 0.000000)" xlink:href="#DEVICE"/>
<use transform="translate(0.000000 0.000000) translate(0.000000 112.299465)" xlink:href="#DEVICE"/>
<use transform="translate(0.000000 0.000000) translate(96.256684 112.299465)" xlink:href="#DEVICE"/>
<use transform="translate(0.000000 0.000000) translate(192.513369 112.299465)" xlink:href="#DEVICE"/>
</g>
</svg>