<?xml version="1.0" encoding="UTF-8"?>
<svg xmlns="http://www.w3.org/2000/svg" xmlns:xlink="http://www.w3.org/1999/xlink"
     width="300.000000" height="300.000000" viewBox="-13.636364 -286.363636 300.000000 300.000000">
<defs>
<style type="text/css">
.l0d1 {fill:none;stroke:black;stroke-dasharray:8,8;}
.l0d0 {stroke: #C2B280; fill: #C2B280; fill-opacity: 0.5;}
</style>
</defs>
<rect x="-13.636364" y="-286.363636" width="300.000000" height="300.000000" fill="none" stroke="none"/>
<g id="fillet" transform="scale(1 -1)">
<polygon class="l0d0" points="-0.000000,54.545455 0.828668,45.073736 3.289493,35.889810 7.307705,27.272727 12.761212,19.484312 19.484312,12.761212 27.272727,7.307705 35.889810,3.289493 45.073736,0.828668 54.545455,-0.000000 191.000000,-0.000000 198.035172,0.926198 204.590909,3.641673 210.220448,7.961370 214.540145,13.590909 217.255620,20.146646 218.181818,27.181818 218.181818,36.454545 217.296386,42.044944 214.726762,47.088115 210.724479,51.090398 205.681307,53.660022 200.090909,54.545455 199.909091,54.545455 195.958726,55.425120 192.754877,57.897881 190.902988,61.496451 190.753019,65.540793 192.333309,69.266633 229.801481,121.722074 234.920206,130.523090 238.314154,140.122066 239.865077,150.184564 239.518940,160.359996 237.287801,170.293839 233.249398,179.639989 227.544430,188.072816 220.371666,195.298512 211.981012,201.065326 202.664807,205.172337 71.794242,248.795859 62.680490,250.984901 53.326526,251.581330 44.008555,250.567535 35.001719,247.973450 26.571973,243.875675 18.968233,238.395209 12.415023,231.693881 7.105846,223.969567 3.197474,215.450354 0.805313,206.387797 -0.000000,197.049497"/>
<polygon class="l0d1" points="0.000000,0.000000 218.181818,0.000000 218.181818,54.545455 181.818182,54.545455 272.727273,181.818182 0.000000,272.727273"/>
</g>
</svg>